<?xml version="1.0" encoding="utf-8"?>
<!-- Generator: Adobe Illustrator 20.1.0, SVG Export Plug-In . SVG Version: 6.00 Build 0)  -->
<svg version="1.1" id="Calque_1" xmlns="http://www.w3.org/2000/svg" xmlns:xlink="http://www.w3.org/1999/xlink" x="0px" y="0px"
	 viewBox="0 0 100 100" style="enable-background:new 0 0 100 100;" xml:space="preserve">
<style type="text/css">
	.st0{fill:#60BFBA;}
</style>
<path class="st0" d="M85.6,87.5L26,87.4c-0.9,0-1.6-0.7-1.6-1.6s0.7-1.6,1.6-1.6l59.6,0.1c0.9,0,1.6,0.7,1.6,1.6
	C87.2,86.8,86.5,87.5,85.6,87.5z"/>
<path class="st0" d="M85.6,46.6L26,46.5c-0.9,0-1.6-0.7-1.6-1.6s0.7-1.6,1.6-1.6l59.6,0.1c0.9,0,1.6,0.7,1.6,1.6
	C87.2,45.9,86.5,46.6,85.6,46.6z"/>
<path class="st0" d="M87.1,44.6L87,86.4c0,0.6-0.7,1.1-1.6,1.1s-1.6-0.5-1.6-1.1L84,44.6c0-0.6,0.7-1.1,1.6-1.1
	C86.4,43.5,87.1,44,87.1,44.6z"/>
<path class="st0" d="M27.7,33l-0.1,53.2c0,0.8-0.7,1.4-1.6,1.4c-0.9,0-1.6-0.6-1.6-1.4L24.6,33c0-0.8,0.7-1.4,1.6-1.4
	S27.7,32.2,27.7,33z"/>
<path class="st0" d="M56.8,34L25.3,34c-0.5,0-0.8-0.7-0.8-1.6c0-0.9,0.4-1.6,0.8-1.6l31.5,0.1c0.5,0,0.8,0.7,0.8,1.6
	C57.6,33.3,57.3,34,56.8,34z"/>
<path class="st0" d="M57.4,31.3l0,14.9c0,0.2-0.7,0.4-1.6,0.4c-0.9,0-1.6-0.2-1.6-0.4l0-14.9c0-0.2,0.7-0.4,1.6-0.4
	S57.4,31.1,57.4,31.3z"/>
<path class="st0" d="M25.8,69l-12.6,0c-0.2,0-0.3-0.7-0.3-1.6c0-0.9,0.2-1.6,0.3-1.6l12.6,0c0.2,0,0.3,0.7,0.3,1.6
	C26.1,68.3,25.9,69,25.8,69z"/>
<path class="st0" d="M74,28.2l-59.6-0.1c-0.9,0-1.6-0.7-1.6-1.6c0-0.9,0.7-1.6,1.6-1.6L74,25.1c0.9,0,1.6,0.7,1.6,1.6
	C75.5,27.5,74.8,28.2,74,28.2z"/>
<path class="st0" d="M75.5,25.6l0,18.9c0,0.3-0.7,0.5-1.6,0.5c-0.9,0-1.6-0.2-1.6-0.5l0-18.9c0-0.3,0.7-0.5,1.6-0.5
	C74.8,25.1,75.5,25.3,75.5,25.6z"/>
<path class="st0" d="M16.1,14.6L16,67.8c0,0.8-0.7,1.4-1.6,1.4c-0.9,0-1.6-0.6-1.6-1.4l0.1-53.2c0-0.8,0.7-1.4,1.6-1.4
	C15.4,13.2,16.1,13.8,16.1,14.6z"/>
<path class="st0" d="M45.2,15.6l-31.5-0.1c-0.5,0-0.8-0.7-0.8-1.6c0-0.9,0.4-1.6,0.8-1.6l31.5,0.1c0.5,0,0.8,0.7,0.8,1.6
	S45.6,15.6,45.2,15.6z"/>
<path class="st0" d="M45.8,12.9l0,14.9c0,0.2-0.7,0.4-1.6,0.4c-0.9,0-1.6-0.2-1.6-0.4l0-14.9c0-0.2,0.7-0.4,1.6-0.4
	S45.8,12.7,45.8,12.9z"/>
</svg>
