<?xml version="1.0" encoding="utf-8"?>
<!-- Generator: Adobe Illustrator 20.1.0, SVG Export Plug-In . SVG Version: 6.00 Build 0)  -->
<svg version="1.1" id="Calque_1" xmlns="http://www.w3.org/2000/svg" xmlns:xlink="http://www.w3.org/1999/xlink" x="0px" y="0px"
	 viewBox="0 0 100 100" style="enable-background:new 0 0 100 100;" xml:space="preserve">
<style type="text/css">
	.st0{fill:#60BFBA;}
</style>
<path class="st0" d="M79.9,51.6H20.1c-0.9,0-1.6-0.7-1.6-1.6c0-0.9,0.7-1.6,1.6-1.6h59.7c0.9,0,1.6,0.7,1.6,1.6
	C81.4,50.9,80.7,51.6,79.9,51.6z"/>
<path class="st0" d="M81,51.1L62.1,69.9c-0.6,0.6-1.6,0.6-2.2,0c-0.6-0.6-0.6-1.6,0-2.2l18.9-18.8c0.6-0.6,1.6-0.6,2.2,0
	c0.3,0.3,0.5,0.7,0.5,1.1S81.3,50.8,81,51.1z"/>
<path class="st0" d="M81,51.1c-0.6,0.6-1.6,0.6-2.2,0L59.9,32.3c-0.6-0.6-0.6-1.6,0-2.2s1.6-0.6,2.2,0L81,48.9
	c0.3,0.3,0.5,0.7,0.5,1.1S81.3,50.8,81,51.1z"/>
<path class="st0" d="M81,51.1c-0.6,0.6-1.6,0.6-2.2,0L59.9,32.3c-0.6-0.6-0.6-1.6,0-2.2s1.6-0.6,2.2,0L81,48.9
	c0.3,0.3,0.5,0.7,0.5,1.1S81.3,50.8,81,51.1z"/>
</svg>
