<?xml version="1.0" encoding="utf-8"?>
<!-- Generator: Adobe Illustrator 20.1.0, SVG Export Plug-In . SVG Version: 6.00 Build 0)  -->
<svg version="1.1" id="Calque_1" xmlns="http://www.w3.org/2000/svg" xmlns:xlink="http://www.w3.org/1999/xlink" x="0px" y="0px"
	 viewBox="0 0 100 100" style="enable-background:new 0 0 100 100;" xml:space="preserve">
<style type="text/css">
	.st0{fill:#60BFBA;}
	.st1{fill:none;stroke:#60BFBA;stroke-width:3;stroke-miterlimit:10;}
	.st2{fill:none;stroke:#60BFBA;stroke-width:3;stroke-linecap:round;stroke-linejoin:round;stroke-miterlimit:10;}
</style>
<path class="st0" d="M82.2,82.4l-64.3-0.1c-1,0-1.7-0.8-1.7-1.7s0.8-1.7,1.7-1.7L82.2,79c1,0,1.7,0.8,1.7,1.7
	C83.8,81.8,83,82.4,82.2,82.4z"/>
<path class="st0" d="M82.2,21l-64.3-0.1c-1,0-1.7-0.8-1.7-1.7s0.8-1.7,1.7-1.7l64.3,0.1c1,0,1.7,0.8,1.7,1.7
	C83.8,20.3,83,21,82.2,21z"/>
<path class="st0" d="M83.8,19.4l-0.1,61.5c0,0.9-0.8,1.6-1.7,1.6s-1.7-0.7-1.7-1.6l0.1-61.5c0-0.9,0.8-1.6,1.7-1.6
	C83,17.8,83.8,18.5,83.8,19.4z"/>
<path class="st0" d="M19.7,19.1l-0.1,61.8c0,0.9-0.8,1.6-1.7,1.6s-1.7-0.7-1.7-1.6l0.1-61.8c0-0.9,0.8-1.6,1.7-1.6
	C18.9,17.5,19.7,18.2,19.7,19.1z"/>
<circle class="st1" cx="48.9" cy="39.1" r="12.1"/>
<path class="st2" d="M30.3,72.7c0,0,15.4-48.2,39.4,0"/>
</svg>
