<?xml version="1.0" encoding="utf-8"?>
<!-- Generator: Adobe Illustrator 20.1.0, SVG Export Plug-In . SVG Version: 6.00 Build 0)  -->
<svg version="1.1" id="Calque_1" xmlns="http://www.w3.org/2000/svg" xmlns:xlink="http://www.w3.org/1999/xlink" x="0px" y="0px"
	 viewBox="0 0 100 100" style="enable-background:new 0 0 100 100;" xml:space="preserve">
<style type="text/css">
	.st0{fill:#60BFBA;}
</style>
<path class="st0" d="M79.8,67H20c-0.9,0-1.6-0.7-1.6-1.6s0.7-1.6,1.6-1.6h59.7c0.9,0,1.6,0.7,1.6,1.6C81.3,66.3,80.6,67,79.8,67z"/>
<path class="st0" d="M80,36.1H20.4c-0.9,0-1.6-0.7-1.6-1.6c0-0.9,0.7-1.6,1.6-1.6H80c0.9,0,1.6,0.7,1.6,1.6
	C81.5,35.4,80.8,36.1,80,36.1z"/>
<path class="st0" d="M18.5,66.2V33.8c0-0.5,0.7-0.9,1.6-0.9s1.6,0.4,1.6,0.9v32.3c0,0.5-0.7,0.9-1.6,0.9S18.5,66.6,18.5,66.2z"/>
<path class="st0" d="M18.7,65.4c0-0.9,0.7-1.6,1.6-1.6H80c0.9,0,1.6,0.7,1.6,1.6S80.9,67,80,67H20.2C19.4,67,18.7,66.3,18.7,65.4z"
	/>
<path class="st0" d="M80,67c-0.9,0-1.6-0.4-1.6-0.9V33.8c0-0.5,0.7-0.9,1.6-0.9s1.6,0.4,1.6,0.9v32.3C81.5,66.6,80.8,67,80,67z"/>
<path class="st0" d="M60.3,67c-0.9,0-1.6-0.4-1.6-0.9V33.8c0-0.5,0.7-0.9,1.6-0.9c0.9,0,1.6,0.4,1.6,0.9v32.3
	C61.8,66.6,61.1,67,60.3,67z"/>
</svg>
