<?xml version="1.0" encoding="utf-8"?>
<!-- Generator: Adobe Illustrator 20.1.0, SVG Export Plug-In . SVG Version: 6.00 Build 0)  -->
<svg version="1.1" id="Calque_1" xmlns="http://www.w3.org/2000/svg" xmlns:xlink="http://www.w3.org/1999/xlink" x="0px" y="0px"
	 viewBox="0 0 100 100" style="enable-background:new 0 0 100 100;" xml:space="preserve">
<style type="text/css">
	.st0{fill:#60BFBA;}
</style>
<path class="st0" d="M68.8,26.7L34.2,75.1c-0.5,0.7-1.5,0.9-2.2,0.4s-0.9-1.5-0.4-2.2l34.6-48.5c0.5-0.7,1.5-0.9,2.2-0.4
	C69.1,25,69.3,26,68.8,26.7z"/>
<path class="st0" d="M32,24.5c0.7-0.5,1.7-0.3,2.2,0.4l34.6,48.5c0.5,0.7,0.3,1.7-0.4,2.2c-0.7,0.5-1.7,0.3-2.2-0.4L31.6,26.7
	C31.1,26,31.3,25,32,24.5z"/>
</svg>
