<?xml version="1.0" encoding="utf-8"?>
<!-- Generator: Adobe Illustrator 20.1.0, SVG Export Plug-In . SVG Version: 6.00 Build 0)  -->
<svg version="1.1" id="Calque_1" xmlns="http://www.w3.org/2000/svg" xmlns:xlink="http://www.w3.org/1999/xlink" x="0px" y="0px"
	 viewBox="0 0 100 100" style="enable-background:new 0 0 100 100;" xml:space="preserve">
<style type="text/css">
	.st0{fill:#60BFBA;}
</style>
<path class="st0" d="M79.8,78.3l-59.6-0.1c-0.9,0-1.6-0.7-1.6-1.6s0.7-1.6,1.6-1.6l59.6,0.1c0.9,0,1.6,0.7,1.6,1.6
	C81.3,77.7,80.6,78.3,79.8,78.3z"/>
<path class="st0" d="M79.8,37.4l-59.6-0.1c-0.9,0-1.6-0.7-1.6-1.6s0.7-1.6,1.6-1.6l59.6,0.1c0.9,0,1.6,0.7,1.6,1.6
	C81.3,36.7,80.6,37.4,79.8,37.4z"/>
<path class="st0" d="M81.3,35.4l-0.1,41.9c0,0.6-0.7,1.1-1.6,1.1c-0.9,0-1.6-0.5-1.6-1.1l0.1-41.9c0-0.6,0.7-1.1,1.6-1.1
	C80.6,34.3,81.3,34.8,81.3,35.4z"/>
<path class="st0" d="M21.9,23.8L21.8,77c0,0.8-0.7,1.4-1.6,1.4c-0.9,0-1.6-0.6-1.6-1.4l0.1-53.2c0-0.8,0.7-1.4,1.6-1.4
	C21.2,22.4,21.9,23,21.9,23.8z"/>
<path class="st0" d="M51,24.8l-31.5-0.1c-0.5,0-0.8-0.7-0.8-1.6s0.4-1.6,0.8-1.6L51,21.7c0.5,0,0.8,0.7,0.8,1.6S51.4,24.8,51,24.8z"
	/>
<path class="st0" d="M51.6,22.1l0,14.9c0,0.2-0.7,0.4-1.6,0.4c-0.9,0-1.6-0.2-1.6-0.4l0-14.9c0-0.2,0.7-0.4,1.6-0.4
	C50.9,21.7,51.6,21.9,51.6,22.1z"/>
</svg>
