<?xml version="1.0" encoding="utf-8"?>
<!-- Generator: Adobe Illustrator 20.1.0, SVG Export Plug-In . SVG Version: 6.00 Build 0)  -->
<svg version="1.1" id="Calque_1" xmlns="http://www.w3.org/2000/svg" xmlns:xlink="http://www.w3.org/1999/xlink" x="0px" y="0px"
	 viewBox="0 0 100 100" style="enable-background:new 0 0 100 100;" xml:space="preserve">
<style type="text/css">
	.st0{fill:#60BFBA;}
</style>
<path class="st0" d="M79.9,21.5H20.1c-0.9,0-1.6-0.7-1.6-1.6c0-0.9,0.7-1.6,1.6-1.6h59.7c0.9,0,1.6,0.7,1.6,1.6
	C81.4,20.8,80.8,21.5,79.9,21.5z"/>
<path class="st0" d="M79.5,81.7h-59c-0.9,0-1.6-0.7-1.6-1.6c0-0.9,0.7-1.6,1.6-1.6h58.9c0.9,0,1.6,0.7,1.6,1.6S80.3,81.7,79.5,81.7z
	"/>
<path class="st0" d="M81.4,19.8v59.8c0,0.9-0.7,1.6-1.6,1.6s-1.6-0.7-1.6-1.6V19.9c0-0.9,0.7-1.6,1.6-1.6S81.5,19,81.4,19.8z"/>
<path class="st0" d="M21.7,19.8v59.8c0,0.9-0.7,1.6-1.6,1.6c-0.9,0-1.6-0.7-1.6-1.6V19.9c0-0.9,0.7-1.6,1.6-1.6
	C21,18.3,21.7,19,21.7,19.8z"/>
<circle class="st0" cx="34" cy="32.9" r="6"/>
<circle class="st0" cx="34" cy="68.1" r="6"/>
<circle class="st0" cx="66.8" cy="32.4" r="6"/>
<circle class="st0" cx="66.8" cy="67.6" r="6"/>
<circle class="st0" cx="50" cy="50" r="6"/>
</svg>
