<?xml version="1.0" encoding="utf-8"?>
<!-- Generator: Adobe Illustrator 20.1.0, SVG Export Plug-In . SVG Version: 6.00 Build 0)  -->
<svg version="1.1" id="Calque_1" xmlns="http://www.w3.org/2000/svg" xmlns:xlink="http://www.w3.org/1999/xlink" x="0px" y="0px"
	 viewBox="0 0 100 100" style="enable-background:new 0 0 100 100;" xml:space="preserve">
<style type="text/css">
	.st0{fill:#60BFBA;}
	.st1{fill:none;stroke:#60BFBA;stroke-width:3;stroke-linecap:round;stroke-linejoin:round;stroke-miterlimit:10;}
</style>
<path class="st0" d="M83.3,74.6l-66.6-0.1c-1,0-1.8-0.8-1.8-1.8c0-1,0.8-1.8,1.8-1.8l66.6,0.1c1,0,1.8,0.8,1.8,1.8
	C85,74,84.2,74.6,83.3,74.6z"/>
<path class="st0" d="M83.3,28.9l-66.6-0.1c-1,0-1.8-0.8-1.8-1.8s0.8-1.8,1.8-1.8l66.6,0.1c1,0,1.8,0.8,1.8,1.8
	C85,28.2,84.2,28.9,83.3,28.9z"/>
<path class="st0" d="M85,26.7l-0.1,46.8c0,0.7-0.8,1.2-1.8,1.2c-1,0-1.8-0.6-1.8-1.2l0.1-46.8c0-0.7,0.8-1.2,1.8-1.2
	C84.2,25.5,85,26,85,26.7z"/>
<path class="st0" d="M18.6,26.5l-0.1,47c0,0.7-0.8,1.2-1.8,1.2s-1.8-0.5-1.8-1.2l0.1-47c0-0.7,0.8-1.2,1.8-1.2
	C17.8,25.2,18.6,25.8,18.6,26.5z"/>
<polygon class="st1" points="16.8,27.1 48.8,46.2 83.1,27.1 "/>
</svg>
