<?xml version="1.0" encoding="utf-8"?>
<!-- Generator: Adobe Illustrator 20.1.0, SVG Export Plug-In . SVG Version: 6.00 Build 0)  -->
<svg version="1.1" id="Calque_1" xmlns="http://www.w3.org/2000/svg" xmlns:xlink="http://www.w3.org/1999/xlink" x="0px" y="0px"
	 viewBox="0 0 100 100" style="enable-background:new 0 0 100 100;" xml:space="preserve">
<style type="text/css">
	.st0{fill:#60BFBA;}
</style>
<path class="st0" d="M80.7,77.9l-59.6-0.1c-0.9,0-1.6-0.7-1.6-1.6s0.7-1.6,1.6-1.6l59.6,0.1c0.9,0,1.6,0.7,1.6,1.6
	C82.2,77.3,81.5,77.9,80.7,77.9z"/>
<path class="st0" d="M80.7,25l-59.6-0.1c-0.9,0-1.6-0.7-1.6-1.6s0.7-1.6,1.6-1.6l59.6,0.1c0.9,0,1.6,0.7,1.6,1.6
	C82.2,24.3,81.5,25,80.7,25z"/>
<path class="st0" d="M22.8,23.3l-0.1,52c0,0.8-0.7,1.4-1.6,1.4s-1.6-0.6-1.6-1.4l0.1-52c0-0.8,0.7-1.4,1.6-1.4
	C22.1,22,22.8,22.6,22.8,23.3z"/>
<path class="st0" d="M82.3,23.3l-0.1,52c0,0.8-0.7,1.4-1.6,1.4c-0.9,0-1.6-0.6-1.6-1.4l0.1-52c0-0.8,0.7-1.4,1.6-1.4
	S82.3,22.6,82.3,23.3z"/>
<path class="st0" d="M80.7,34.7l-59.6-0.1c-0.9,0-1.6-0.7-1.6-1.6s0.7-1.6,1.6-1.6l59.6,0.1c0.9,0,1.6,0.7,1.6,1.6
	C82.2,34,81.5,34.7,80.7,34.7z"/>
<path class="st0" d="M80.7,51.8l-59.6-0.1c-0.9,0-1.6-0.7-1.6-1.6s0.7-1.6,1.6-1.6l59.6,0.1c0.9,0,1.6,0.7,1.6,1.6
	C82.2,51.1,81.5,51.8,80.7,51.8z"/>
<path class="st0" d="M80.7,68.9l-59.6-0.1c-0.9,0-1.6-0.7-1.6-1.6c0-0.9,0.7-1.6,1.6-1.6l59.6,0.1c0.9,0,1.6,0.7,1.6,1.6
	C82.2,68.2,81.5,68.9,80.7,68.9z"/>
<path class="st0" d="M37.1,23.3l-0.1,52c0,0.8-0.7,1.4-1.6,1.4c-0.9,0-1.6-0.6-1.6-1.4l0.1-52c0-0.8,0.7-1.4,1.6-1.4
	S37.1,22.6,37.1,23.3z"/>
<path class="st0" d="M53.5,23.3l-0.1,52c0,0.8-0.7,1.4-1.6,1.4c-0.9,0-1.6-0.6-1.6-1.4l0.1-52c0-0.8,0.7-1.4,1.6-1.4
	S53.5,22.6,53.5,23.3z"/>
<path class="st0" d="M68.9,23.3l-0.1,52c0,0.8-0.7,1.4-1.6,1.4c-0.9,0-1.6-0.6-1.6-1.4l0.1-52c0-0.8,0.7-1.4,1.6-1.4
	S68.9,22.6,68.9,23.3z"/>
</svg>
