<?xml version="1.0" encoding="utf-8"?>
<!-- Generator: Adobe Illustrator 20.1.0, SVG Export Plug-In . SVG Version: 6.00 Build 0)  -->
<svg version="1.1" id="Calque_1" xmlns="http://www.w3.org/2000/svg" xmlns:xlink="http://www.w3.org/1999/xlink" x="0px" y="0px"
	 viewBox="0 0 100 100" style="enable-background:new 0 0 100 100;" xml:space="preserve">
<style type="text/css">
	.st0{fill:#60BFBA;}
</style>
<g>
	<path class="st0" d="M30.4,49.6c0-0.4,0.2-0.8,0.5-1.1c0.6-0.6,1.6-0.6,2.2,0L52,67.3c0.6,0.6,0.6,1.6,0,2.2
		c-0.6,0.6-1.6,0.6-2.2,0L30.9,50.7C30.6,50.4,30.4,50,30.4,49.6z"/>
	<path class="st0" d="M30.4,49.6c0-0.4,0.2-0.8,0.5-1.1l18.9-18.8c0.6-0.6,1.6-0.6,2.2,0c0.6,0.6,0.6,1.6,0,2.2L33.1,50.7
		c-0.6,0.6-1.6,0.6-2.2,0C30.6,50.4,30.4,50,30.4,49.6z"/>
	<path class="st0" d="M30.4,49.6c0-0.4,0.2-0.8,0.5-1.1l18.9-18.8c0.6-0.6,1.6-0.6,2.2,0c0.6,0.6,0.6,1.6,0,2.2L33.1,50.7
		c-0.6,0.6-1.6,0.6-2.2,0C30.6,50.4,30.4,50,30.4,49.6z"/>
</g>
<g>
	<path class="st0" d="M47.6,50.4c0-0.4,0.2-0.8,0.5-1.1c0.6-0.6,1.6-0.6,2.2,0L69.1,68c0.6,0.6,0.6,1.6,0,2.2
		c-0.6,0.6-1.6,0.6-2.2,0L48,51.5C47.7,51.2,47.6,50.8,47.6,50.4z"/>
	<path class="st0" d="M47.6,50.4c0-0.4,0.2-0.8,0.5-1.1l18.9-18.8c0.6-0.6,1.6-0.6,2.2,0s0.6,1.6,0,2.2L50.2,51.5
		c-0.6,0.6-1.6,0.6-2.2,0C47.7,51.2,47.6,50.8,47.6,50.4z"/>
	<path class="st0" d="M47.6,50.4c0-0.4,0.2-0.8,0.5-1.1l18.9-18.8c0.6-0.6,1.6-0.6,2.2,0s0.6,1.6,0,2.2L50.2,51.5
		c-0.6,0.6-1.6,0.6-2.2,0C47.7,51.2,47.6,50.8,47.6,50.4z"/>
</g>
</svg>
