<?xml version="1.0" encoding="utf-8"?>
<!-- Generator: Adobe Illustrator 20.1.0, SVG Export Plug-In . SVG Version: 6.00 Build 0)  -->
<svg version="1.1" id="Calque_1" xmlns="http://www.w3.org/2000/svg" xmlns:xlink="http://www.w3.org/1999/xlink" x="0px" y="0px"
	 viewBox="0 0 100 100" style="enable-background:new 0 0 100 100;" xml:space="preserve">
<style type="text/css">
	.st0{fill:#60BFBA;}
</style>
<path class="st0" d="M18.6,50c0-0.9,0.7-1.6,1.6-1.6h59.7c0.9,0,1.6,0.7,1.6,1.6c0,0.9-0.7,1.6-1.6,1.6H20.1
	C19.3,51.6,18.6,50.9,18.6,50z"/>
<path class="st0" d="M18.5,50c0-0.4,0.2-0.8,0.5-1.1c0.6-0.6,1.6-0.6,2.2,0l18.9,18.8c0.6,0.6,0.6,1.6,0,2.2c-0.6,0.6-1.6,0.6-2.2,0
	L19,51.1C18.7,50.8,18.5,50.4,18.5,50z"/>
<path class="st0" d="M18.5,50c0-0.4,0.2-0.8,0.5-1.1l18.9-18.8c0.6-0.6,1.6-0.6,2.2,0s0.6,1.6,0,2.2L21.2,51.1
	c-0.6,0.6-1.6,0.6-2.2,0C18.7,50.8,18.5,50.4,18.5,50z"/>
</svg>
