<?xml version="1.0" encoding="utf-8"?>
<!-- Generator: Adobe Illustrator 20.1.0, SVG Export Plug-In . SVG Version: 6.00 Build 0)  -->
<svg version="1.1" id="Calque_1" xmlns="http://www.w3.org/2000/svg" xmlns:xlink="http://www.w3.org/1999/xlink" x="0px" y="0px"
	 viewBox="0 0 100 100" style="enable-background:new 0 0 100 100;" xml:space="preserve">
<style type="text/css">
	.st0{fill:#60BFBA;}
	.st1{fill:none;stroke:#60BFBA;stroke-width:3;stroke-linecap:round;stroke-linejoin:round;stroke-miterlimit:10;}
</style>
<path class="st0" d="M81.4,72.9H21.6c-0.9,0-1.6-0.7-1.6-1.6c0-0.9,0.7-1.6,1.6-1.6h59.7c0.9,0,1.6,0.7,1.6,1.6
	C82.9,72.2,82.2,72.9,81.4,72.9z"/>
<path class="st1" d="M20.1,71.3c0,0-15.6-17.2,3.3-26c4.2-4.7,7.3-18.9,22.5-18.1c15.2,0.7,17.9,12,21.3,14.2
	c3.4,2.2,13.5-2,17.4,6.1c3.9,8.1-1.6,23.8-1.6,23.8H20.1z"/>
</svg>
