<?xml version="1.0" encoding="utf-8"?>
<!-- Generator: Adobe Illustrator 20.1.0, SVG Export Plug-In . SVG Version: 6.00 Build 0)  -->
<svg version="1.1" id="Calque_1" xmlns="http://www.w3.org/2000/svg" xmlns:xlink="http://www.w3.org/1999/xlink" x="0px" y="0px"
	 viewBox="0 0 100 100" style="enable-background:new 0 0 100 100;" xml:space="preserve">
<style type="text/css">
	.st0{fill:#60BFBA;}
</style>
<g>
	<path class="st0" d="M69.1,50.7L50.2,69.5c-0.6,0.6-1.6,0.6-2.2,0c-0.6-0.6-0.6-1.6,0-2.2l18.9-18.8c0.6-0.6,1.6-0.6,2.2,0
		c0.3,0.3,0.5,0.7,0.5,1.1C69.6,50,69.4,50.4,69.1,50.7z"/>
	<path class="st0" d="M69.1,50.7c-0.6,0.6-1.6,0.6-2.2,0L48,32c-0.6-0.6-0.6-1.6,0-2.2c0.6-0.6,1.6-0.6,2.2,0l18.9,18.8
		c0.3,0.3,0.5,0.7,0.5,1.1C69.6,50,69.4,50.4,69.1,50.7z"/>
	<path class="st0" d="M69.1,50.7c-0.6,0.6-1.6,0.6-2.2,0L48,32c-0.6-0.6-0.6-1.6,0-2.2c0.6-0.6,1.6-0.6,2.2,0l18.9,18.8
		c0.3,0.3,0.5,0.7,0.5,1.1C69.6,50,69.4,50.4,69.1,50.7z"/>
</g>
<g>
	<path class="st0" d="M52,51.5L33.1,70.3c-0.6,0.6-1.6,0.6-2.2,0c-0.6-0.6-0.6-1.6,0-2.2l18.9-18.8c0.6-0.6,1.6-0.6,2.2,0
		c0.3,0.3,0.5,0.7,0.5,1.1S52.3,51.2,52,51.5z"/>
	<path class="st0" d="M52,51.5c-0.6,0.6-1.6,0.6-2.2,0L30.9,32.7c-0.6-0.6-0.6-1.6,0-2.2s1.6-0.6,2.2,0L52,49.3
		c0.3,0.3,0.5,0.7,0.5,1.1S52.3,51.2,52,51.5z"/>
	<path class="st0" d="M52,51.5c-0.6,0.6-1.6,0.6-2.2,0L30.9,32.7c-0.6-0.6-0.6-1.6,0-2.2s1.6-0.6,2.2,0L52,49.3
		c0.3,0.3,0.5,0.7,0.5,1.1S52.3,51.2,52,51.5z"/>
</g>
</svg>
