<?xml version="1.0" encoding="utf-8"?>
<!-- Generator: Adobe Illustrator 20.1.0, SVG Export Plug-In . SVG Version: 6.00 Build 0)  -->
<svg version="1.1" id="Calque_1" xmlns="http://www.w3.org/2000/svg" xmlns:xlink="http://www.w3.org/1999/xlink" x="0px" y="0px"
	 viewBox="0 0 100 100" style="enable-background:new 0 0 100 100;" xml:space="preserve">
<style type="text/css">
	.st0{fill:#60BFBA;}
</style>
<g>
	<path class="st0" d="M50,75.2c-0.9,0-1.6-0.7-1.6-1.6V13.8c0-0.9,0.7-1.6,1.6-1.6s1.6,0.7,1.6,1.6v59.7
		C51.6,74.4,50.9,75.2,50,75.2z"/>
	<path class="st0" d="M50,75.2c-0.4,0-0.8-0.2-1.1-0.5c-0.6-0.6-0.6-1.6,0-2.2l18.8-18.9c0.6-0.6,1.6-0.6,2.2,0
		c0.6,0.6,0.6,1.6,0,2.2L51.1,74.7C50.8,75,50.4,75.2,50,75.2z"/>
	<path class="st0" d="M50,75.2c-0.4,0-0.8-0.2-1.1-0.5L30.1,55.8c-0.6-0.6-0.6-1.6,0-2.2s1.6-0.6,2.2,0l18.8,18.9
		c0.6,0.6,0.6,1.6,0,2.2C50.8,75,50.4,75.2,50,75.2z"/>
	<path class="st0" d="M50,75.2c-0.4,0-0.8-0.2-1.1-0.5L30.1,55.8c-0.6-0.6-0.6-1.6,0-2.2s1.6-0.6,2.2,0l18.8,18.9
		c0.6,0.6,0.6,1.6,0,2.2C50.8,75,50.4,75.2,50,75.2z"/>
	<path class="st0" d="M93.8,87.7H6.2V67.3c0-0.9,0.7-1.6,1.6-1.6s1.6,0.7,1.6,1.6v17.3h81.3V67.3c0-0.9,0.7-1.6,1.6-1.6
		s1.6,0.7,1.6,1.6V87.7z"/>
</g>
</svg>
